<svg xmlns="http://www.w3.org/2000/svg" xmlns:xlink="http://www.w3.org/1999/xlink" width="90" zoomAndPan="magnify" viewBox="0 0 67.5 53.25" height="71" preserveAspectRatio="xMidYMid meet" version="1.0"><defs><clipPath id="4ba5bf2e16"><path d="M 9 13 L 57 13 L 57 51.984375 L 9 51.984375 Z M 9 13 " clip-rule="nonzero"/></clipPath><clipPath id="953fae7fe0"><path d="M 0.222656 0 L 66.09375 0 L 66.09375 19 L 0.222656 19 Z M 0.222656 0 " clip-rule="nonzero"/></clipPath><clipPath id="a771248093"><path d="M 27 41 L 39 41 L 39 51.984375 L 27 51.984375 Z M 27 41 " clip-rule="nonzero"/></clipPath><clipPath id="34a8b4af72"><path d="M 9 39.136719 L 57 39.136719 L 57 51.984375 L 9 51.984375 Z M 9 39.136719 " clip-rule="nonzero"/></clipPath><clipPath id="e5b7929d52"><path d="M 27 41 L 39 41 L 39 51.984375 L 27 51.984375 Z M 27 41 " clip-rule="nonzero"/></clipPath></defs><g clip-path="url(#4ba5bf2e16)"><path fill="#e8fff7" d="M 14.148438 27.582031 C 19.417969 22.457031 25.75 19.710938 33.15625 19.714844 C 40.558594 19.714844 46.886719 22.464844 52.125 27.558594 C 53.675781 26.015625 55.210938 24.484375 56.75 22.953125 C 43.535156 9.570312 21.992188 10.160156 9.53125 22.976562 C 11.058594 24.503906 12.589844 26.03125 14.148438 27.582031 Z M 23.371094 36.894531 C 26.105469 34.242188 29.347656 32.8125 33.148438 32.808594 C 36.953125 32.808594 40.203125 34.25 42.855469 36.828125 C 44.421875 35.265625 45.957031 33.734375 47.492188 32.203125 C 39.132812 23.820312 26.035156 24.683594 18.761719 32.273438 C 18.785156 32.304688 18.8125 32.339844 18.839844 32.371094 C 20.339844 33.867188 21.839844 35.367188 23.371094 36.894531 Z M 38.453125 46.710938 C 38.453125 43.789062 36.097656 41.429688 33.183594 41.429688 C 30.285156 41.433594 27.921875 43.789062 27.910156 46.683594 C 27.902344 49.59375 30.261719 51.96875 33.171875 51.972656 C 36.09375 51.980469 38.449219 49.628906 38.453125 46.710938 Z M 38.453125 46.710938 " fill-opacity="1" fill-rule="nonzero"/></g><g clip-path="url(#953fae7fe0)"><path fill="#e8fff7" d="M 66.070312 13.808594 C 65.980469 13.878906 65.878906 13.941406 65.796875 14.023438 C 64.4375 15.378906 63.078125 16.742188 61.722656 18.101562 C 61.636719 18.1875 61.578125 18.296875 61.503906 18.402344 C 53.558594 10.707031 44.164062 6.621094 33.148438 6.621094 C 22.140625 6.621094 12.753906 10.699219 4.839844 18.355469 C 4.765625 18.28125 4.679688 18.203125 4.597656 18.121094 C 3.230469 16.753906 1.867188 15.386719 0.5 14.023438 C 0.417969 13.941406 0.316406 13.878906 0.222656 13.808594 C 0.222656 13.765625 0.222656 13.722656 0.222656 13.675781 C 0.308594 13.613281 0.398438 13.550781 0.472656 13.476562 C 2.128906 11.867188 3.871094 10.359375 5.738281 9 C 10.667969 5.402344 16.085938 2.851562 22.011719 1.386719 C 24.601562 0.746094 27.230469 0.316406 29.894531 0.160156 C 30.417969 0.128906 30.941406 0.0742188 31.464844 0.0351562 C 32.585938 0.0351562 33.707031 0.0351562 34.828125 0.0351562 C 34.902344 0.046875 34.976562 0.0703125 35.050781 0.078125 C 36.40625 0.195312 37.765625 0.28125 39.117188 0.433594 C 41.878906 0.746094 44.578125 1.367188 47.222656 2.214844 C 54.136719 4.4375 60.207031 8.074219 65.4375 13.117188 C 65.640625 13.3125 65.859375 13.492188 66.070312 13.675781 C 66.070312 13.722656 66.070312 13.765625 66.070312 13.808594 Z M 66.070312 13.808594 " fill-opacity="1" fill-rule="nonzero"/></g><path fill="#e8fff7" d="M 14.148438 27.582031 C 12.589844 26.03125 11.058594 24.503906 9.53125 22.976562 C 21.992188 10.160156 43.535156 9.570312 56.75 22.953125 C 55.210938 24.484375 53.675781 26.015625 52.125 27.558594 C 46.886719 22.464844 40.558594 19.714844 33.15625 19.714844 C 25.75 19.710938 19.417969 22.457031 14.148438 27.582031 Z M 14.148438 27.582031 " fill-opacity="1" fill-rule="nonzero"/><path fill="#e8fff7" d="M 23.371094 36.894531 C 21.839844 35.367188 20.339844 33.867188 18.839844 32.371094 C 18.808594 32.339844 18.785156 32.304688 18.761719 32.273438 C 26.035156 24.683594 39.132812 23.820312 47.492188 32.203125 C 45.957031 33.734375 44.421875 35.265625 42.855469 36.828125 C 40.203125 34.25 36.953125 32.808594 33.148438 32.8125 C 29.347656 32.8125 26.105469 34.242188 23.371094 36.894531 Z M 23.371094 36.894531 " fill-opacity="1" fill-rule="nonzero"/><g clip-path="url(#a771248093)"><path fill="#e8fff7" d="M 38.453125 46.710938 C 38.449219 49.628906 36.09375 51.980469 33.171875 51.972656 C 30.261719 51.96875 27.902344 49.59375 27.910156 46.683594 C 27.921875 43.789062 30.285156 41.433594 33.183594 41.429688 C 36.097656 41.429688 38.453125 43.789062 38.453125 46.710938 Z M 38.453125 46.710938 " fill-opacity="1" fill-rule="nonzero"/></g><g clip-path="url(#34a8b4af72)"><path fill="#5c8374" d="M 14.148438 27.582031 C 19.417969 22.457031 25.75 19.710938 33.15625 19.714844 C 40.558594 19.714844 46.886719 22.464844 52.125 27.558594 C 53.675781 26.015625 55.210938 24.484375 56.75 22.953125 C 43.535156 9.570312 21.992188 10.160156 9.53125 22.976562 C 11.058594 24.503906 12.589844 26.03125 14.148438 27.582031 Z M 23.371094 36.894531 C 26.105469 34.242188 29.347656 32.8125 33.148438 32.808594 C 36.953125 32.808594 40.203125 34.25 42.855469 36.828125 C 44.421875 35.265625 45.957031 33.734375 47.492188 32.203125 C 39.132812 23.820312 26.035156 24.683594 18.761719 32.273438 C 18.785156 32.304688 18.8125 32.339844 18.839844 32.371094 C 20.339844 33.867188 21.839844 35.367188 23.371094 36.894531 Z M 38.453125 46.710938 C 38.453125 43.789062 36.097656 41.429688 33.183594 41.429688 C 30.285156 41.433594 27.921875 43.789062 27.910156 46.683594 C 27.902344 49.59375 30.261719 51.96875 33.171875 51.972656 C 36.09375 51.980469 38.449219 49.628906 38.453125 46.710938 Z M 38.453125 46.710938 " fill-opacity="1" fill-rule="nonzero"/></g><g clip-path="url(#e5b7929d52)"><path fill="#5c8374" d="M 38.453125 46.710938 C 38.449219 49.628906 36.09375 51.980469 33.171875 51.972656 C 30.261719 51.96875 27.902344 49.59375 27.910156 46.683594 C 27.921875 43.789062 30.285156 41.433594 33.183594 41.429688 C 36.097656 41.429688 38.453125 43.789062 38.453125 46.710938 Z M 38.453125 46.710938 " fill-opacity="1" fill-rule="nonzero"/></g></svg>